<svg id="visual" viewBox="0 0 900 600" width="900" height="600" xmlns="http://www.w3.org/2000/svg" xmlns:xlink="http://www.w3.org/1999/xlink" version="1.1"><rect x="0" y="0" width="900" height="600" fill="#001220"></rect><path d="M0 367L21.5 373.5C43 380 86 393 128.8 397.8C171.7 402.7 214.3 399.3 257.2 394C300 388.7 343 381.3 385.8 381.5C428.7 381.7 471.3 389.3 514.2 394.7C557 400 600 403 642.8 397.7C685.7 392.3 728.3 378.7 771.2 369.8C814 361 857 357 878.5 355L900 353L900 601L878.5 601C857 601 814 601 771.2 601C728.3 601 685.7 601 642.8 601C600 601 557 601 514.2 601C471.3 601 428.7 601 385.8 601C343 601 300 601 257.2 601C214.3 601 171.7 601 128.8 601C86 601 43 601 21.5 601L0 601Z" fill="#6668b2"></path><path d="M0 432L21.5 437.5C43 443 86 454 128.8 456.2C171.7 458.3 214.3 451.7 257.2 443.2C300 434.7 343 424.3 385.8 429.8C428.7 435.3 471.3 456.7 514.2 462.3C557 468 600 458 642.8 456.2C685.7 454.3 728.3 460.7 771.2 460.3C814 460 857 453 878.5 449.5L900 446L900 601L878.5 601C857 601 814 601 771.2 601C728.3 601 685.7 601 642.8 601C600 601 557 601 514.2 601C471.3 601 428.7 601 385.8 601C343 601 300 601 257.2 601C214.3 601 171.7 601 128.8 601C86 601 43 601 21.5 601L0 601Z" fill="#5659b7"></path><path d="M0 444L21.5 448.7C43 453.3 86 462.7 128.8 466.3C171.7 470 214.3 468 257.2 472.2C300 476.3 343 486.7 385.8 482.3C428.7 478 471.3 459 514.2 461.3C557 463.7 600 487.3 642.8 494.7C685.7 502 728.3 493 771.2 484.2C814 475.3 857 466.7 878.5 462.3L900 458L900 601L878.5 601C857 601 814 601 771.2 601C728.3 601 685.7 601 642.8 601C600 601 557 601 514.2 601C471.3 601 428.7 601 385.8 601C343 601 300 601 257.2 601C214.3 601 171.7 601 128.8 601C86 601 43 601 21.5 601L0 601Z" fill="#454abb"></path><path d="M0 529L21.5 528.7C43 528.3 86 527.7 128.8 527.2C171.7 526.7 214.3 526.3 257.2 527.2C300 528 343 530 385.8 532.2C428.7 534.3 471.3 536.7 514.2 537.3C557 538 600 537 642.8 528.2C685.7 519.3 728.3 502.7 771.2 496.8C814 491 857 496 878.5 498.5L900 501L900 601L878.5 601C857 601 814 601 771.2 601C728.3 601 685.7 601 642.8 601C600 601 557 601 514.2 601C471.3 601 428.7 601 385.8 601C343 601 300 601 257.2 601C214.3 601 171.7 601 128.8 601C86 601 43 601 21.5 601L0 601Z" fill="#313abf"></path><path d="M0 570L21.5 569.3C43 568.7 86 567.3 128.8 563.5C171.7 559.7 214.3 553.3 257.2 547.2C300 541 343 535 385.8 534.7C428.7 534.3 471.3 539.7 514.2 542.8C557 546 600 547 642.8 547.8C685.7 548.7 728.3 549.3 771.2 550.5C814 551.7 857 553.3 878.5 554.2L900 555L900 601L878.5 601C857 601 814 601 771.2 601C728.3 601 685.7 601 642.8 601C600 601 557 601 514.2 601C471.3 601 428.7 601 385.8 601C343 601 300 601 257.2 601C214.3 601 171.7 601 128.8 601C86 601 43 601 21.5 601L0 601Z" fill="#1227c1"></path></svg>